<svg xmlns="http://www.w3.org/2000/svg" width="128" height="128" fill="none"><path fill="#fff" stroke="#1772EB" stroke-linecap="round" stroke-linejoin="round" stroke-width="3.54" d="M83.865 48.226V58.41a20.365 20.365 0 0 1-40.73 0V48.226S48.226 51.62 63.5 51.62c15.274 0 20.365-3.394 20.365-3.394Z"/><path stroke="#1772EB" stroke-linecap="round" stroke-linejoin="round" stroke-width="3.54" d="M68.591 66.894a8.486 8.486 0 0 1-10.182 0"/><path fill="#1772EB" d="M69.94 56.56a2.5 2.5 0 1 1 0 5 2.5 2.5 0 0 1 0-5ZM57.363 56.56a2.5 2.5 0 1 1 0 5 2.5 2.5 0 0 1 0-5Z"/><path fill="#ACCCF8" stroke="#1772EB" stroke-linecap="round" stroke-linejoin="round" stroke-width="3.54" d="M83.865 36.822v11.404S78.774 51.62 63.5 51.62c-15.274 0-20.365-3.394-20.365-3.394V36.822l19.618 4.446c.493.102 1.001.102 1.494 0l19.618-4.446Z"/><path fill="#ACCCF8" stroke="#1772EB" stroke-linecap="round" stroke-linejoin="round" stroke-width="3.54" d="m97.204 33.767-13.339 3.055-19.618 4.446a3.69 3.69 0 0 1-1.494 0l-19.618-4.446-13.339-3.055a.831.831 0 0 1 0-1.629l32.957-7.501a3.69 3.69 0 0 1 1.494 0l32.957 7.501a.831.831 0 0 1 0 1.63Z"/><path stroke="#1772EB" stroke-linecap="round" stroke-linejoin="round" stroke-width="3.54" d="M29.558 33.685v17.928"/><path fill="#ACCCF8" stroke="#1772EB" stroke-linecap="round" stroke-linejoin="round" stroke-width="3.54" d="M32.953 65.197a24.337 24.337 0 0 0-3.395-13.576 24.336 24.336 0 0 0-3.394 13.576h6.788Z"/><path fill="#ACCCF8" d="M100.836 102.533v-3.754a6.701 6.701 0 0 0-2.614-5.36c-4.514-3.444-15.273-9.554-34.722-9.554s-30.191 6.11-34.722 9.555a6.708 6.708 0 0 0-2.614 5.36v3.753"/><path fill="#ACCCF8" d="M98.222 93.416c-4.514-3.441-15.273-9.55-34.722-9.55s-30.191 6.109-34.722 9.55a6.72 6.72 0 0 0-2.614 5.363v3.754h5.132c5.492-3.442 15.705-7.806 32.204-7.806 16.5 0 26.712 4.381 32.204 7.806h5.132v-3.754a6.72 6.72 0 0 0-2.614-5.363Z"/><path stroke="#1772EB" stroke-linecap="round" stroke-linejoin="round" stroke-width="3.54" d="M81.048 85.796 64.67 101.41a1.7 1.7 0 0 1-2.342 0L45.952 85.796"/><path stroke="#1772EB" stroke-linecap="round" stroke-linejoin="round" stroke-width="3.54" d="M100.836 102.533v-3.754a6.701 6.701 0 0 0-2.614-5.36c-4.514-3.444-15.273-9.554-34.722-9.554s-30.191 6.11-34.722 9.555a6.708 6.708 0 0 0-2.614 5.36v3.753"/><path fill="#fff" stroke="#1772EB" stroke-linecap="round" stroke-linejoin="round" stroke-width="3.54" d="m81.048 85.8-16.36 15.613a1.697 1.697 0 0 1-2.376 0L45.952 85.8A75.35 75.35 0 0 1 63.5 83.865 75.349 75.349 0 0 1 81.048 85.8Z"/></svg>